<svg version="1.1" id="Layer_1" xmlns="http://www.w3.org/2000/svg" xmlns:xlink="http://www.w3.org/1999/xlink" x="0px" y="0px"
	 width="100%" viewBox="0 0 496 496" enable-background="new 0 0 496 496" xml:space="preserve">
<path fill="#000000" opacity="1.000000" stroke="none" 
	d="
M143.609848,249.939163 
	C135.629837,250.649551 135.627548,250.649551 135.621567,243.263885 
	C135.615906,236.267914 135.589310,229.271774 135.628860,222.276047 
	C135.641037,220.121521 135.273529,218.648743 132.834091,217.704422 
	C129.400482,216.375275 129.099731,212.209610 132.134872,209.935471 
	C133.075989,209.230316 133.872742,209.068542 133.954956,207.519485 
	C134.606720,195.239960 140.155411,190.959549 152.487289,192.263962 
	C163.053894,193.381638 171.283997,198.590240 178.397705,205.936829 
	C180.581482,208.192078 182.572540,210.108475 186.000900,209.754578 
	C188.682648,209.477768 189.379257,211.191086 189.328568,213.538834 
	C189.284225,215.593094 189.546280,217.757568 186.470093,217.643738 
	C183.116013,217.519638 183.362076,219.906021 183.358841,222.100571 
	C183.347305,229.929398 183.250534,237.759964 183.390747,245.586197 
	C183.449509,248.865540 182.547760,250.436798 178.916260,250.425842 
	C175.310837,250.414978 173.607788,249.207077 173.832764,245.510818 
	C173.951752,243.555954 173.853821,241.587875 173.853821,238.614014 
	C169.800583,240.950287 166.528839,242.790955 163.301407,244.706299 
	C157.494171,248.152664 156.938904,247.970169 153.963089,241.193863 
	C157.732422,237.360443 163.617157,236.416702 167.424133,232.221680 
	C164.526474,228.787445 161.172363,228.937561 157.810364,230.444626 
	C154.249207,232.040985 153.067017,230.138901 152.039505,227.272186 
	C150.855408,223.968536 153.015366,223.302841 155.352676,222.448151 
	C161.871979,220.064178 167.738358,221.098923 172.961761,225.829239 
	C174.783630,218.921951 174.059326,217.927063 167.451706,217.925186 
	C161.788681,217.923569 156.116379,218.146332 150.465637,217.887939 
	C146.196060,217.692703 144.955505,219.515915 145.079041,223.504822 
	C145.290329,230.327667 145.166077,237.162018 145.118637,243.991089 
	C145.104996,245.953613 145.447510,248.025955 143.609848,249.939163 
M148.233536,200.481873 
	C146.808151,200.929581 145.380325,201.393143 144.365692,202.576767 
	C142.349106,204.929138 143.063004,209.321487 145.689240,209.425156 
	C153.332642,209.726929 160.995636,209.532242 169.871048,209.532242 
	C163.387054,203.021042 156.998779,199.880188 148.233536,200.481873 
z"/>
<path fill="#000000" opacity="1.000000" stroke="none" 
	d="
M233.426331,218.620270 
	C234.714920,227.027954 234.351288,235.032639 234.229752,243.015640 
	C234.182709,246.106430 233.033539,248.936508 229.926117,250.358292 
	C226.800385,251.788452 224.053253,250.597092 221.547485,248.767075 
	C217.399734,245.737885 214.998383,241.292770 212.360306,237.059875 
	C211.139450,235.100952 210.047913,233.051987 207.061539,231.634277 
	C205.688522,236.148132 206.013382,240.408676 206.728943,244.463409 
	C207.465973,248.639709 206.188141,250.167191 202.072784,250.643265 
	C190.106308,252.027527 188.533600,250.888763 188.798508,239.143723 
	C189.001022,230.165466 189.422012,221.185410 190.051559,212.227631 
	C190.242722,209.507736 189.450287,205.872910 193.497070,204.805420 
	C199.122223,203.321609 204.534561,204.923294 206.903976,208.746902 
	C209.268097,212.561996 211.554565,216.425583 213.949524,220.220963 
	C214.556366,221.182663 215.387878,222.068893 217.098877,221.864716 
	C218.337601,218.027771 217.860916,214.115173 217.074814,210.267181 
	C216.265091,206.303528 217.784561,204.806610 221.703506,204.628723 
	C233.154785,204.108932 233.182419,204.061356 233.426331,218.620270 
z"/>
<path fill="#000000" opacity="1.000000" stroke="none" 
	d="
M381.099731,226.531311 
	C381.272247,233.104675 382.560303,239.163467 382.430054,245.357620 
	C382.354553,248.947830 381.076324,250.623993 377.526947,250.641052 
	C375.865692,250.649033 374.200073,250.882828 372.544952,250.812897 
	C368.235931,250.630859 364.010345,250.255356 365.690582,243.511002 
	C362.995392,247.471786 360.071899,250.106094 355.620636,250.754364 
	C350.215698,251.541504 345.957001,249.466385 344.254852,244.887192 
	C342.457214,240.051086 344.274994,235.419998 349.038513,232.559174 
	C351.809357,230.895081 354.952545,230.442993 357.984680,229.583130 
	C360.109589,228.980530 362.678833,229.420441 364.249420,227.404434 
	C364.136810,225.644348 362.972168,225.521133 361.768555,225.402298 
	C358.858826,225.114960 356.243378,226.398727 353.490295,226.849442 
	C351.064056,227.246628 348.241699,231.906525 346.057739,227.068787 
	C343.805481,222.079834 346.609863,216.234528 351.392883,215.250488 
	C357.627350,213.967819 363.956268,213.825012 370.209656,215.095688 
	C376.195374,216.311966 379.842224,220.056091 381.099731,226.531311 
M364.628723,237.256622 
	C365.456268,235.918213 366.089874,234.510010 364.197266,233.601257 
	C362.910492,232.983429 361.631073,233.384140 360.706696,234.506714 
	C359.976166,235.393936 359.203888,236.461029 359.973236,237.575012 
	C361.196716,239.346466 362.721191,238.801620 364.628723,237.256622 
z"/>
<path fill="#000000" opacity="1.000000" stroke="none" 
	d="
M283.687439,206.486298 
	C287.101013,205.772278 290.054596,206.099930 293.034180,206.585464 
	C295.222473,206.942047 296.436584,208.041977 296.156616,210.246475 
	C295.682098,213.982605 297.598663,214.998657 300.841583,214.672119 
	C305.983032,214.154404 306.290802,217.355026 306.367126,221.288925 
	C306.445770,225.342316 304.640808,226.788437 300.933960,226.301605 
	C295.956940,225.647949 294.932068,228.255432 295.290863,232.521042 
	C295.696808,237.346512 298.547241,237.831177 302.288971,236.742798 
	C305.536407,235.798218 306.860443,236.929169 307.139709,240.222916 
	C307.794342,247.943008 306.659149,249.486053 298.872284,250.562057 
	C297.064789,250.811813 295.230652,251.115005 293.419952,251.055115 
	C282.809479,250.704178 277.270233,244.442245 278.122711,233.876236 
	C278.387329,230.596100 280.085876,227.195312 274.910797,225.487183 
	C272.168793,224.582138 273.296326,215.634949 276.197113,214.919388 
	C278.940460,214.242661 279.715210,212.826859 279.674072,210.392120 
	C279.632965,207.959671 280.840210,206.689987 283.687439,206.486298 
z"/>
<path fill="#000000" opacity="1.000000" stroke="none" 
	d="
M258.174774,239.660950 
	C262.079681,239.949615 265.096771,238.642517 267.946350,236.816391 
	C270.415070,235.234329 271.719543,235.648209 272.426178,238.743027 
	C274.248779,246.725357 272.861450,249.029419 264.821808,250.261810 
	C260.555054,250.915863 256.317810,251.424332 251.944717,250.621124 
	C240.402283,248.501099 234.547531,241.008469 235.710419,229.456497 
	C236.636154,220.260315 244.702454,213.880157 255.315094,214.245148 
	C259.104401,214.375473 263.001984,214.674927 266.329376,216.895966 
	C270.055176,219.382980 272.168304,222.806931 271.663818,227.402679 
	C271.172150,231.881287 268.294006,234.538483 264.251190,235.920853 
	C259.535004,237.533447 254.804779,237.724609 250.105988,234.865555 
	C252.014114,238.585510 252.360565,238.792374 258.174774,239.660950 
M251.217422,226.599167 
	C249.932877,228.335220 250.312454,229.778015 252.265747,230.475403 
	C253.803421,231.024414 255.549500,231.156143 256.873352,229.809906 
	C257.786774,228.881058 257.861511,227.655487 257.030426,226.682129 
	C255.503067,224.893387 253.647034,224.981628 251.217422,226.599167 
z"/>
<path fill="#000000" opacity="1.000000" stroke="none" 
	d="
M325.691467,222.856812 
	C329.383667,215.550888 332.205566,213.631165 337.854156,214.768631 
	C341.448730,215.492477 343.422974,217.586899 342.949890,221.458588 
	C342.849365,222.281296 342.658447,223.094864 342.476715,223.905365 
	C341.873810,226.593781 343.653107,230.094269 341.098022,231.914566 
	C338.508514,233.759384 336.441803,230.276901 333.904907,229.764648 
	C329.818604,228.939499 325.733978,231.560455 325.405853,235.914276 
	C325.170319,239.039658 325.191010,242.271423 325.728760,245.345276 
	C326.353516,248.916565 324.968536,250.176147 321.695862,250.619080 
	C318.176270,251.095428 314.733429,250.594894 311.257843,250.363068 
	C308.790924,250.198517 307.791779,248.862045 307.707703,246.479874 
	C307.378632,237.160294 308.169220,227.890320 308.873535,218.617065 
	C309.065765,216.085999 310.461182,214.691116 313.093811,214.696396 
	C314.257202,214.698730 315.420593,214.659225 316.584045,214.655304 
	C325.249603,214.626083 325.249603,214.627411 325.691467,222.856812 
z"/>
</svg>